<?xml version="1.0" encoding="UTF-8"?>
<svg version="1.1" xmlns="http://www.w3.org/2000/svg" width="500" height="500">
<path d="M0 0 C165 0 330 0 500 0 C500 165 500 330 500 500 C335 500 170 500 0 500 C0 335 0 170 0 0 Z " fill="#FEFDFD" transform="translate(0,0)"/>
<path d="M0 0 C165 0 330 0 500 0 C500 165 500 330 500 500 C335 500 170 500 0 500 C0 335 0 170 0 0 Z M87.9375 57 C87.24527344 57.804375 86.55304688 58.60875 85.83984375 59.4375 C81.2094332 65.8866493 79.8774441 71.45298775 79.86857224 79.27482224 C79.86473109 80.54718318 79.86088995 81.81954412 79.8569324 83.13046145 C79.8577126 84.54016039 79.85859137 85.94985928 79.85955811 87.35955811 C79.85697376 88.85888726 79.8539604 90.35821572 79.8505547 91.85754323 C79.84248971 95.97904729 79.84069541 100.10053393 79.83995724 104.22204494 C79.83810583 108.66661992 79.83055808 113.11118586 79.82382202 117.55575562 C79.81024205 127.27476089 79.80421459 136.99376204 79.79981136 146.71277523 C79.79704855 152.78124771 79.79281114 158.8497186 79.78830719 164.91819 C79.7761153 181.71994807 79.76581561 198.52170486 79.7624321 215.32346725 C79.76221253 216.39873809 79.76199297 217.47400892 79.76176675 218.58186372 C79.76154847 219.65970515 79.76133019 220.73754658 79.7611053 221.84804988 C79.76066183 224.03216346 79.76021527 226.21627704 79.75976562 228.40039062 C79.7595442 229.4837861 79.75932277 230.56718158 79.75909463 231.68340722 C79.75514621 249.24011428 79.7376905 266.79677986 79.7144061 284.35347089 C79.6906935 302.3785021 79.6782303 320.40351248 79.67706418 338.42855954 C79.67614741 348.54904265 79.67039439 358.66947167 79.65224457 368.78993988 C79.63684487 377.40726567 79.63172238 386.02452066 79.63998267 394.64185759 C79.64388954 399.03788911 79.64295776 403.43377805 79.62892532 407.82979202 C79.61618882 411.85666709 79.61738166 415.88329242 79.62951604 419.91016713 C79.63147346 421.36441013 79.62839247 422.81867081 79.61967167 424.27288899 C79.54994667 436.68903493 81.28188938 446.85057099 90.0078125 456.13671875 C98.55750892 464.1948821 106.18406465 466.60391224 117.82124329 466.5146637 C118.98427874 466.52160922 120.1473142 466.52855475 121.34559315 466.53571075 C124.55174077 466.5507739 127.757287 466.54806609 130.9634341 466.53755772 C134.42983572 466.53053867 137.89614442 466.54658421 141.36251831 466.55955505 C148.14524195 466.58115663 154.92779756 466.58107784 161.71054427 466.57292951 C167.22654758 466.5666193 172.74250205 466.5677759 178.25850487 466.57420158 C179.43794567 466.57555407 179.43794567 466.57555407 180.64121356 466.57693387 C182.23879599 466.57878516 183.83637841 466.58064772 185.43396082 466.58252143 C200.40359203 466.5990871 215.37312891 466.59039184 230.34275445 466.57353585 C244.02056144 466.55884629 257.69814862 466.57345894 271.37592731 466.60230602 C285.43816844 466.6317418 299.50030828 466.64265973 313.56257886 466.63312382 C315.1550685 466.63210132 316.74755816 466.63110671 318.34004784 466.6301403 C319.12347583 466.62966391 319.90690382 466.62918752 320.71407205 466.6286967 C326.21791687 466.62653774 331.72166522 466.63630918 337.22548866 466.65091133 C343.94108692 466.66848057 350.65640526 466.66825217 357.37199274 466.64555968 C360.79438863 466.63445768 364.21629221 466.63116161 367.63866615 466.64986038 C371.35884494 466.66584021 375.07768915 466.65079044 378.79780579 466.62818909 C379.86563288 466.64002482 380.93345996 466.65186054 382.03364545 466.66405493 C392.4325021 466.53629931 401.73637837 463.13971611 409.31640625 455.890625 C416.64742774 447.65810899 418.29813861 439.67345 418.29434204 428.89224243 C418.30169542 427.76978351 418.30904879 426.64732459 418.316625 425.49085176 C418.33866034 421.72776932 418.34637965 417.9647974 418.35400391 414.20166016 C418.36653576 411.50442351 418.37980435 408.80719855 418.39382935 406.10997009 C418.43327423 398.01746798 418.45347534 389.92496117 418.47128493 381.83238703 C418.48006062 378.01898568 418.49079129 374.20558984 418.50126266 370.39219284 C418.53527135 357.71316239 418.56426193 345.03413533 418.57876015 332.3550663 C418.58257972 329.06809103 418.58642043 325.78111579 418.59033203 322.49414062 C418.59129951 321.67721306 418.59226699 320.86028549 418.59326379 320.01860254 C418.6098735 306.77753625 418.66056925 293.53683077 418.72549339 280.29592212 C418.79163906 266.69485703 418.82765761 253.0939754 418.83404863 239.49274862 C418.83837745 231.85871368 418.8558537 224.2252057 418.90697098 216.59132767 C418.95039119 210.09212271 418.96648361 203.59357281 418.94703741 197.09423925 C418.93794947 193.77928356 418.94608903 190.46596096 418.9805603 187.15113258 C419.01588016 183.55352077 419.00185222 179.95933743 418.97549438 176.36172485 C418.99743288 175.31910952 419.01937137 174.27649419 419.04197466 173.20228446 C418.9422465 167.56461481 418.19779465 164.57053234 414.1890316 160.4773922 C412.82701637 159.27811126 411.43074765 158.11638766 410 157 C409.297176 156.44349593 408.59435201 155.88699186 407.87023032 155.31362402 C405.65038544 153.75443555 404.26693672 153.53142569 401.57739258 153.34155273 C400.25319809 153.24485794 400.25319809 153.24485794 398.9022522 153.14620972 C393.52304227 152.87521578 388.14575194 152.68136433 382.76171875 152.53515625 C380.15689763 152.45763422 377.55208005 152.37999297 374.94726562 152.30224609 C373.58309276 152.26263322 372.21891628 152.22314483 370.85473633 152.18377686 C363.86505186 151.98133173 356.87578579 151.76566146 349.88671875 151.54296875 C349.19727047 151.52100182 348.50782219 151.49903488 347.79748154 151.47640228 C334.36607284 151.04410981 320.95194882 150.41195511 307.5378418 149.60961914 C306.84981979 149.56858566 306.16179779 149.52755219 305.45292664 149.48527527 C303.66634362 149.37724581 301.8800304 149.2647783 300.09375 149.15185547 C297.05679489 149.00278775 294.04005173 148.97310195 291 149 C291.0097435 148.36351028 291.019487 147.72702057 291.02952576 147.07124329 C291.09350953 139.4861686 290.68958561 131.9823334 290.16015625 124.41796875 C290.02792914 122.444887 289.89570876 120.47180477 289.76382351 118.49870014 C289.44281278 113.71482626 289.11376149 108.93149998 288.78442383 104.14819336 C288.59927157 101.45496062 288.41706908 98.76155219 288.2374115 96.06794739 C288.07039009 93.56820928 287.89950136 91.06872377 287.72315979 88.56962585 C286.7810249 74.39751925 286.43386945 60.19491825 286 46 C262.60786798 45.8596428 239.21580571 45.7539373 215.82333755 45.68912697 C204.96102037 45.6582303 194.09896531 45.61612992 183.23681641 45.54736328 C173.7658847 45.48743297 164.29514289 45.44882042 154.82402682 45.43546903 C149.81218621 45.42766833 144.80088872 45.40942265 139.78922272 45.36561966 C135.06459889 45.32466301 130.34073795 45.3123772 125.61595345 45.32135391 C123.8890651 45.31971352 122.16214923 45.30791629 120.43541527 45.28476715 C107.82035582 45.12404991 96.58717777 46.60038742 87.9375 57 Z " fill="#F34336" transform="translate(0,0)"/>
<path d="M0 0 C4.54036972 2.72422183 8.03026886 5.8759316 11.6796875 9.70703125 C14.30802388 12.30439397 17.07337395 14.69922267 19.86376953 17.11987305 C24.01000744 20.76903626 27.99061056 24.59657446 32 28.39453125 C35.27790051 31.48676943 38.58056093 34.530845 41.984375 37.484375 C46.18091391 41.12819903 50.21947253 44.92439882 54.25 48.75 C60.11153327 54.29091109 66.00931298 59.78321953 71.96875 65.21875 C75.54799077 68.49174557 79.08449016 71.81023624 82.625 75.125 C87.56142168 79.7435037 92.53017641 84.31864255 97.5703125 88.82421875 C100.4349005 91.3894527 103.281133 93.97434358 106.125 96.5625 C107.05570312 97.40941406 107.98640625 98.25632812 108.9453125 99.12890625 C109.62335938 99.74636719 110.30140625 100.36382812 111 101 C108.39075513 102.30462244 107.33079815 101.77714642 104.515625 101.125 C99.26396593 100.00634782 94.0987725 99.41419884 88.75 99 C87.74332275 98.91951416 86.73664551 98.83902832 85.69946289 98.75610352 C59.17915051 96.73235507 32.58393392 95.71191462 6 95 C4.22408343 73.74229764 2.65116405 52.47741096 1.3125 31.1875 C1.24606293 30.1452124 1.17962585 29.1029248 1.11117554 28.02905273 C0.9210378 25.03388852 0.73512569 22.03849455 0.55078125 19.04296875 C0.49467682 18.15997604 0.43857239 17.27698334 0.38076782 16.36723328 C0.05181344 10.90070436 -0.04868501 5.47654587 0 0 Z " fill="#FDFBFB" transform="translate(291,49)"/>
<path d="M0 0 C5.61 0 11.22 0 17 0 C18 1 18 1 18.12025452 3.36012268 C18.11803391 4.40603073 18.11581329 5.45193878 18.11352539 6.52954102 C18.11344986 7.71068985 18.11337433 8.89183868 18.11329651 10.10877991 C18.10813522 11.3941716 18.10297394 12.67956329 18.09765625 14.00390625 C18.0962413 15.31205795 18.09482635 16.62020966 18.09336853 17.96800232 C18.0895441 21.45162859 18.07971446 24.93521339 18.06866455 28.41882324 C18.05844882 31.97126698 18.05381586 35.52371759 18.04882812 39.07617188 C18.03862232 46.05081791 18.01905064 53.02534997 18 60 C27.9 60 37.8 60 48 60 C46.20528096 64.4867976 45.23420191 66.12814737 42.0625 69.4375 C38.38530335 73.40252834 34.98691732 77.47381273 31.6875 81.75 C26.8615059 87.98843832 21.79912526 93.98669762 16.62890625 99.94140625 C14.34838917 102.5730257 12.1550569 105.26414762 10 108 C6.26107049 106.49775154 4.45906395 104.39834702 2 101.25 C-1.58024933 96.75113406 -5.23943308 92.34916184 -9 88 C-13.42430402 82.86817125 -17.75913155 77.67939377 -22.01953125 72.41015625 C-23.81732011 70.22231458 -25.67367253 68.10897053 -27.5625 66 C-30 63 -30 63 -30 60 C-20.1 60 -10.2 60 0 60 C0 40.2 0 20.4 0 0 Z " fill="#EC483C" transform="translate(241,188)"/>
<path d="M0 0 C0.79862251 0.00291284 1.59724501 0.00582568 2.4200682 0.00882679 C3.68316752 0.00754515 3.68316752 0.00754515 4.971784 0.00623763 C7.81552334 0.00458024 10.65920471 0.0101084 13.50293869 0.01555592 C15.53261702 0.01583776 17.56229545 0.01568012 19.59197372 0.01511341 C25.12067266 0.01482532 30.6493501 0.02072391 36.17804402 0.02768737 C41.94897441 0.03391899 47.71990523 0.03452455 53.49083847 0.03571278 C64.42726064 0.03882666 75.36367288 0.04704082 86.30009067 0.05706227 C98.74727595 0.06822164 111.1944617 0.07373341 123.64165074 0.0787577 C149.25419169 0.08922339 174.86672382 0.10682393 200.47925705 0.12908131 C200.47925705 4.41908131 200.47925705 8.70908131 200.47925705 13.12908131 C173.63746522 13.15240692 146.79567491 13.17005882 119.95387501 13.18089348 C107.4917105 13.18605716 95.02955228 13.19310121 82.56739181 13.20452076 C71.70963927 13.21446542 60.85189128 13.22093421 49.99413431 13.2231698 C44.24119955 13.22447728 38.48827781 13.22756548 32.73534721 13.23481137 C27.32724729 13.24156814 21.91916583 13.24369897 16.51106209 13.24218899 C14.51997284 13.24246547 12.52888301 13.24447262 10.53779739 13.24828678 C7.83186452 13.25321868 5.12600252 13.25208147 2.4200682 13.24933583 C1.22213444 13.25370509 1.22213444 13.25370509 0 13.25816262 C-5.40662174 13.24320252 -5.40662174 13.24320252 -6.52074295 12.12908131 C-6.61925466 10.29792248 -6.65046924 8.46288198 -6.64574295 6.62908131 C-6.64832108 5.62876881 -6.6508992 4.62845631 -6.65355545 3.59783131 C-6.40598345 -1.00409529 -4.03511954 0.01116516 0 0 Z " fill="#EF4F43" transform="translate(152.52074295282364,344.8709186911583)"/>
<path d="M0 0 C68.31 0 136.62 0 207 0 C207 3.96 207 7.92 207 12 C138.69 12 70.38 12 0 12 C0 8.04 0 4.08 0 0 Z " fill="#EE4538" transform="translate(146,376)"/>
<path d="M0 0 C68.31 0 136.62 0 207 0 C207 3.96 207 7.92 207 12 C138.69 12 70.38 12 0 12 C0 8.04 0 4.08 0 0 Z " fill="#EF4538" transform="translate(146,307)"/>
<path d="M0 0 C59.4 0 118.8 0 180 0 C180.33 0.66 180.66 1.32 181 2 C181.99 2 182.98 2 184 2 C183.98731079 2.58985687 183.97462158 3.17971375 183.96154785 3.78744507 C183.86825632 11.93665091 184.37032707 20.02378038 184.92597961 28.14802933 C185.09738592 30.65473543 185.26424934 33.16171021 185.43005371 35.66879272 C185.78266366 40.98780248 186.14111514 46.30641054 186.5 51.625 C186.91620135 57.80193002 187.32994469 63.97901243 187.73908997 70.15641403 C187.90277884 72.61198999 188.07011263 75.06729902 188.2376709 77.52261353 C188.71858693 84.68939841 189.1438117 91.81249688 189 99 C189.67724121 98.98428955 190.35448242 98.9685791 191.05224609 98.95239258 C209.38285964 98.59542007 227.57721406 99.26792097 245.875 100.375 C246.94337097 100.43821442 248.01174194 100.50142883 249.11248779 100.56655884 C262.87457616 101.39057355 276.66657607 102.23177126 290.27294922 104.56005859 C293.03323294 105.07963289 293.03323294 105.07963289 296 105 C296 106.32 296 107.64 296 109 C225.83157591 107.18002998 225.83157591 107.18002998 203.5 105.9375 C202.76472076 105.89747864 202.02944153 105.85745728 201.2718811 105.81622314 C195.11000952 105.47476189 189.07929102 105.09638672 183 104 C182.44638649 96.49691006 181.89533746 88.99363472 181.34594727 81.49023438 C181.15934261 78.94559617 180.97218272 76.40099861 180.78442383 73.85644531 C180.24968896 66.60686642 179.72533173 59.35669372 179.21856689 52.10510254 C179.08649578 50.22881491 178.95194314 48.35269647 178.81268311 46.47692871 C177.68921364 31.28282624 178 16.3086312 178 1 C119.26 1 60.52 1 0 1 C0 0.67 0 0.34 0 0 Z " fill="#E4554A" transform="translate(108,45)"/>
<path d="M0 0 C17.16 0 34.32 0 52 0 C45.32535885 8.89952153 45.32535885 8.89952153 41.625 12.875 C36.38307051 18.6136267 31.31604013 24.5259398 27 31 C23.26107049 29.49775154 21.45906395 27.39834702 19 24.25 C14.80146557 18.96166295 10.44862612 13.84023803 5.98632812 8.77246094 C3.49141365 5.90117267 1.71759293 3.43518587 0 0 Z " fill="#FCF9F9" transform="translate(224,255)"/>
<path d="M0 0 C0.99 0.33 1.98 0.66 3 1 C3 2.32 3 3.64 3 5 C-11.19 4.67 -25.38 4.34 -40 4 C-40 3.67 -40 3.34 -40 3 C-28.78 2.67 -17.56 2.34 -6 2 C-6 1.67 -6 1.34 -6 1 C-4.02 1 -2.04 1 0 1 C0 0.67 0 0.34 0 0 Z " fill="#DC5F56" transform="translate(401,149)"/>
<path d="M0 0 C9.9 0 19.8 0 30 0 C29.34 1.65 28.68 3.3 28 5 C27.67 3.68 27.34 2.36 27 1 C18.09 1 9.18 1 0 1 C0 0.67 0 0.34 0 0 Z " fill="#CC4F46" transform="translate(259,248)"/>
<path d="M0 0 C0.33 0.66 0.66 1.32 1 2 C0.360625 2.928125 -0.27875 3.85625 -0.9375 4.8125 C-3.08622093 7.84219943 -3.08622093 7.84219943 -4 11 C-6.0625 12.6875 -6.0625 12.6875 -8 14 C-8.66 13.34 -9.32 12.68 -10 12 C-9.44570313 11.38511719 -8.89140625 10.77023437 -8.3203125 10.13671875 C-7.59585937 9.32847656 -6.87140625 8.52023437 -6.125 7.6875 C-5.40570313 6.88699219 -4.68640625 6.08648437 -3.9453125 5.26171875 C-1.88394498 2.95810917 -1.88394498 2.95810917 0 0 Z " fill="#F4E5E4" transform="translate(282,257)"/>
<path d="M0 0 C2.31 1.98 4.62 3.96 7 6 C4.2780754 7.3609623 2.8168043 6.70366248 -0.125 6.0625 C-1.03507812 5.86785156 -1.94515625 5.67320312 -2.8828125 5.47265625 C-3.58148438 5.31667969 -4.28015625 5.16070312 -5 5 C-2 3 -2 3 0 3 C0 2.01 0 1.02 0 0 Z " fill="#F2DCDB" transform="translate(395,144)"/>
</svg>
